<?xml version="1.0" encoding="iso-8859-1"?>
<!-- Generator: Adobe Illustrator 16.0.0, SVG Export Plug-In . SVG Version: 6.00 Build 0)  -->
<!DOCTYPE svg PUBLIC "-//W3C//DTD SVG 1.1//EN" "http://www.w3.org/Graphics/SVG/1.1/DTD/svg11.dtd">
<svg version="1.1" id="fields-header" xmlns="http://www.w3.org/2000/svg" xmlns:xlink="http://www.w3.org/1999/xlink" x="0px"
	 y="0px" width="32px" height="32px" viewBox="0 0 32 32" style="enable-background:new 0 0 32 32;" xml:space="preserve">
<g>
	<rect x="0.5" y="0.5" width="31" height="7"/>
	<path d="M31,1v6H1V1H31 M32,0H0v8h32V0L32,0z"/>
</g>
<g>
	<rect x="1.5" y="1.5" style="fill:#515151;" width="5" height="5"/>
	<path d="M6,2v4H2V2H6 M7,1H1v6h6V1L7,1z"/>
</g>
<g>
	<rect x="25.5" y="3.5" style="fill:#515151;" width="5" height="3"/>
	<path d="M30,4v2h-4V4H30 M31,3h-6v4h6V3L31,3z"/>
</g>
<g>
	<rect x="19.5" y="3.5" style="fill:#515151;" width="5" height="3"/>
	<path d="M24,4v2h-4V4H24 M25,3h-6v4h6V3L25,3z"/>
</g>
<path d="M31,27v4H1v-4H31 M32,26H0v6h32V26L32,26z"/>
<path d="M31,10v14H1V10H31 M32,9H0v16h32V9L32,9z"/>
</svg>
