<?xml version="1.0" encoding="iso-8859-1"?>
<!-- Generator: Adobe Illustrator 16.0.0, SVG Export Plug-In . SVG Version: 6.00 Build 0)  -->
<!DOCTYPE svg PUBLIC "-//W3C//DTD SVG 1.1//EN" "http://www.w3.org/Graphics/SVG/1.1/DTD/svg11.dtd">
<svg version="1.1" xmlns="http://www.w3.org/2000/svg" xmlns:xlink="http://www.w3.org/1999/xlink" x="0px" y="0px" width="32px"
	 height="32px" viewBox="0 0 32 32" style="enable-background:new 0 0 32 32;" xml:space="preserve">
<g id="Layer_1">
</g>
<g id="fields-BASE_x5F_ICON_copy">
	<g>
		<path style="fill:#FFFFFF;" d="M31,1v6H1V1H31 M32,0H0v8h32V0L32,0z"/>
	</g>
	<g>
		<path style="fill:#FFFFFF;" d="M31,27v4H1v-4H31 M32,26H0v6h32V26L32,26z"/>
	</g>
	<g>
		<path style="fill:#FFFFFF;" d="M9,10v14H1V10H9 M10,9H0v16h10V9L10,9z"/>
	</g>
	<g>
		<path style="fill:#FFFFFF;" d="M20,10v14h-8V10H20 M21,9H11v16h10V9L21,9z"/>
	</g>
	<g>
		<path style="fill:#FFFFFF;" d="M31,10v14h-8V10H31 M32,9H22v16h10V9L32,9z"/>
	</g>
	<g>
		<path style="fill:#FFFFFF;" d="M29,12v4h-4v-4H29 M30,11h-6v6h6V11L30,11z"/>
	</g>
	<g>
		<path style="fill:#FFFFFF;" d="M18,12v4h-4v-4H18 M19,11h-6v6h6V11L19,11z"/>
	</g>
	<g>
		<path style="fill:#FFFFFF;" d="M7,12v4H3v-4H7 M8,11H2v6h6V11L8,11z"/>
	</g>
</g>
</svg>
